<!-- Generator: Adobe Illustrator 17.1.0, SVG Export Plug-In  -->
<svg version="1.1"
	 xmlns="http://www.w3.org/2000/svg" xmlns:xlink="http://www.w3.org/1999/xlink" xmlns:a="http://ns.adobe.com/AdobeSVGViewerExtensions/3.0/"
	 x="0px" y="0px" width="156.3px" height="33.1px" viewBox="0 0 156.3 33.1" enable-background="new 0 0 156.3 33.1"
	 xml:space="preserve">
<defs>
</defs>
<g>
	<path fill="#FFFFFF" d="M0,28L1.8,26c2.1,2.4,5.4,4.7,10,4.7c6.6,0,8.4-3.6,8.4-6.4C20.2,14.8,1,19.7,1,8.5C1,3.3,5.7,0,11.5,0
		c4.8,0,8.4,1.7,10.8,4.5l-1.8,2c-2.3-2.8-5.6-4-9.2-4c-4.3,0-7.5,2.4-7.5,5.9c0,8.2,19.2,3.7,19.2,15.6c0,4.1-2.7,9.1-11.4,9.1
		C6.4,33.1,2.4,31,0,28z"/>
	<path fill="#FFFFFF" d="M38.5,32.5L23.1,15.9L37.2,0.5h3.5L27.1,15.8L42,32.5H38.5z"/>
	<path fill="#FFFFFF" d="M54.9,32.5V18.9L42.2,0.5h3.3l10.8,15.7L67.1,0.5h3.3L57.7,18.9v13.7H54.9z"/>
	<path fill="#FFFFFF" d="M74.6,32.5v-32h13.2c5.4,0,8.8,3.1,8.8,8.2c0,4-2.7,6.8-5.6,7.3c3.4,0.5,6.2,4.1,6.2,7.9
		c0,5.3-3.5,8.6-9.2,8.6H74.6z M93.7,9c0-3.3-2.2-6-6.3-6H77.4v11.9h10.1C91.6,14.9,93.7,12.3,93.7,9z M94.4,23.7
		c0-3.3-2.3-6.3-6.7-6.3H77.4v12.7h10.3C91.9,30.1,94.4,27.6,94.4,23.7z"/>
	<path fill="#FFFFFF" d="M153,32.5l-9-13.2h-7.1v13.2h-2.7v-32h12c5.5,0,9.7,3.5,9.7,9.4c0,5.8-4.1,9-8.9,9.2l9.3,13.4H153z
		 M153,9.9c0-4-2.9-6.9-7.1-6.9h-9v13.8h9C150.1,16.8,153,13.9,153,9.9z"/>
	<polygon fill="#FFFFFF" points="116.9,0.5 113.5,0.5 100.4,32.5 103.5,32.5 115.1,3.5 126.8,32.5 130,32.5 	"/>
</g>
</svg>
